<svg xmlns="http://www.w3.org/2000/svg" xmlns:xlink="http://www.w3.org/1999/xlink" viewBox="0 0 1226 256"><defs><style>.cls-1{fill:url(#linear-gradient);}.cls-2{fill:#acff76;}.cls-3{fill:none;}.cls-4{fill:#cfff73;}.cls-5{fill:#6bf96b;}.cls-6{fill:#ffa76a;}</style><linearGradient id="linear-gradient" y1="128" x2="473" y2="128" gradientUnits="userSpaceOnUse"><stop offset="0.07" stop-color="#6a005b"/><stop offset="0.2" stop-color="#730a5c" stop-opacity="0.94"/><stop offset="0.38" stop-color="#8b275e" stop-opacity="0.78"/><stop offset="0.59" stop-color="#b45562" stop-opacity="0.5"/><stop offset="0.81" stop-color="#ec9668" stop-opacity="0.13"/><stop offset="0.88" stop-color="#ffac6a" stop-opacity="0"/></linearGradient></defs><title>Asset 2</title><g id="Layer_2" data-name="Layer 2"><g id="Layer_3" data-name="Layer 3"><rect class="cls-1" width="473" height="256"/></g><g id="footer"><path class="cls-2" d="M1226,256V153H434.93c0,1.57.07,3.3.07,5.22v39.11H417.23V156.81A25.42,25.42,0,0,0,417,153H393.61a28,28,0,0,0-1.11,8.27v36.06H375.1V153H353v26q0,4.09,1,5.1t6.35,1q.79,0,1.68,0t1.74-.09v13l-8.24.31q-12.33.42-16.85-4.27-2.93-3-2.93-9.22V153H304.46c-.14.23-.3.44-.43.68q-2,3.85-2,11.84v31.81H284.5V153H267.83v44.33H250.19V153H236.85a49.4,49.4,0,0,1,1,10.2q0,15.51-7.36,25.7t-20.56,10.2q-8.29,0-13.32-3.3a26.46,26.46,0,0,1-6.5-6.84v8.36H172.95V153h-9.3c.21.89.39,1.8.54,2.74a85,85,0,0,1,.57,13.21H116.29q.4,10,7,14a17.67,17.67,0,0,0,9.59,2.5,13.52,13.52,0,0,0,13.24-7.63h17.76q-.7,5.92-6.45,12-8.94,9.71-25,9.71a36.28,36.28,0,0,1-23.44-8.19q-10.15-8.19-10.15-26.64A50.62,50.62,0,0,1,100,153H76.63a22.91,22.91,0,0,1-3.14,1.35q6.23,2.51,8.82,7.11t2.59,14.07v6a45.51,45.51,0,0,0,.5,8.36,7.51,7.51,0,0,0,3.47,5.13v2.26H68.12q-.86-3-1.22-4.82a44.25,44.25,0,0,1-.79-7.75L66,176.39q-.12-8.61-3-11.48T52.29,162H33.93v35.29H15.55V153H0V256Z"/><path class="cls-3" d="M61.38,120.56q-2.9-1.59-8.7-1.59H31.93v24.18H52.16q6,0,9-1.47,5.34-2.56,5.34-10.14Q66.54,123.37,61.38,120.56Z"/><path class="cls-3" d="M404.45,139.48q-6.85,0-10.4,4.62a15.46,15.46,0,0,0-2.44,4.9H415a14.59,14.59,0,0,0-1.55-4.87Q411,139.48,404.45,139.48Z"/><path class="cls-3" d="M202.82,140.52q-9.47,0-13.06,8.48h25.85Q212.06,140.53,202.82,140.52Z"/><path class="cls-3" d="M140.06,142.95a15.25,15.25,0,0,0-10.32-3.59q-6.7,0-10.39,3.8A16,16,0,0,0,115.8,149h28.09A12.74,12.74,0,0,0,140.06,142.95Z"/><path class="cls-4" d="M191.71,153.13A32.08,32.08,0,0,0,189.86,165q0,8.55,3.82,14.16t11.63,5.62a12.07,12.07,0,0,0,10.53-5.43q3.75-5.43,3.76-14.29a32,32,0,0,0-1.85-11.72l-.14-.31H191.77Z"/><path class="cls-4" d="M118.72,158.46h30a19.64,19.64,0,0,0-.8-4.46H119.8A23.11,23.11,0,0,0,118.72,158.46Z"/><path class="cls-4" d="M82.18,141.59A27,27,0,0,0,85.41,129a25.22,25.22,0,0,0-1.67-9.46,28,28,0,0,0-4.52-7.57,22.24,22.24,0,0,0-8.42-6.29q-5-2.14-14.2-2.32h-43V149H74.63A17.25,17.25,0,0,0,82.18,141.59Zm-21,.09q-3,1.47-9,1.47H31.93V119H52.69q5.8,0,8.7,1.59,5.16,2.81,5.16,11Q66.54,139.12,61.21,141.68Z"/><path class="cls-4" d="M119.35,143.16q3.69-3.8,10.39-3.8a15.25,15.25,0,0,1,10.32,3.59,12.74,12.74,0,0,1,3.83,6.05h17.76a31.82,31.82,0,0,0-4.76-11,27.08,27.08,0,0,0-11.5-9.84A37.9,37.9,0,0,0,129.73,125q-14.63,0-23.8,9.23A30.46,30.46,0,0,0,98,149H115.8A16,16,0,0,1,119.35,143.16Z"/><path class="cls-4" d="M202.82,140.52q9.25,0,12.79,8.48h19.24a33.87,33.87,0,0,0-6.46-14.22q-7.47-9.46-20.68-9.46-7.31,0-12,3.05a25.5,25.5,0,0,0-7.31,7.08v-32h-17.4V149h18.82Q193.36,140.52,202.82,140.52Z"/><rect class="cls-4" x="248.19" y="126.78" width="17.65" height="22.22"/><rect class="cls-4" x="248.19" y="88.79" width="17.65" height="16.06"/><path class="cls-4" d="M316.14,142.84c.53,0,1.22,0,2.08.06s1.83.12,2.93.24V125.32l-1.5-.09q-.34,0-.82,0-7.82,0-12.7,4.09-3,2.44-7,9.1v-11.6H282.5V149h20C305,144.91,309.51,142.84,316.14,142.84Z"/><polygon class="cls-4" points="351 139.79 361.81 139.79 361.81 127.39 351 127.39 351 108.83 333.79 108.83 333.79 127.39 324.5 127.39 324.5 139.79 333.79 139.79 333.79 149 351 149 351 139.79"/><path class="cls-4" d="M394.05,144.1q3.55-4.62,10.4-4.62,6.6,0,9,4.65A14.59,14.59,0,0,1,415,149h18a65.29,65.29,0,0,0-.54-7.64,17.44,17.44,0,0,0-3.34-7.67,19.54,19.54,0,0,0-8.24-6.54A28.16,28.16,0,0,0,409.65,125a24.6,24.6,0,0,0-10.43,2.29,21.3,21.3,0,0,0-8.72,8.09V103.64H373.1V149h18.51A15.46,15.46,0,0,1,394.05,144.1Z"/><path class="cls-5" d="M31.93,193.33V158H50.29q7.85,0,10.71,2.87t3,11.48l.12,8.36a44.25,44.25,0,0,0,.79,7.75q.37,1.83,1.22,4.82H86.88v-2.26a7.51,7.51,0,0,1-3.47-5.13,45.51,45.51,0,0,1-.5-8.36v-6q0-9.46-2.59-14.07t-8.82-7.11A22.91,22.91,0,0,0,74.63,149H13.55v44.33Z"/><path class="cls-5" d="M106.92,187.4a36.28,36.28,0,0,0,23.44,8.19q16.1,0,25-9.71,5.75-6.1,6.45-12H144.09a13.52,13.52,0,0,1-13.24,7.63,17.67,17.67,0,0,1-9.59-2.5q-6.55-4-7-14h48.47a85,85,0,0,0-.57-13.21c-.14-.93-.33-1.84-.54-2.74H143.89a19.64,19.64,0,0,1,.8,4.46h-30A23.11,23.11,0,0,1,115.8,149H98a50.62,50.62,0,0,0-1.27,11.76Q96.77,179.22,106.92,187.4Z"/><path class="cls-5" d="M188.11,193.33V185a26.46,26.46,0,0,0,6.5,6.84q5,3.3,13.32,3.3,13.19,0,20.56-10.2t7.36-25.7a49.4,49.4,0,0,0-1-10.2H215.61l.14.31A32,32,0,0,1,217.6,161q0,8.85-3.76,14.29a12.07,12.07,0,0,1-10.53,5.43q-7.82,0-11.63-5.62T187.86,161a32.08,32.08,0,0,1,1.85-11.84l.06-.13H170.95v44.33Z"/><rect class="cls-5" x="248.19" y="149" width="17.65" height="44.33"/><path class="cls-5" d="M300,193.33V161.52q0-8,2-11.84c.13-.24.29-.45.43-.68h-20v44.33Z"/><path class="cls-5" d="M336.72,190q4.52,4.7,16.85,4.27l8.24-.31v-13q-.86.06-1.74.09t-1.68,0q-5.31,0-6.35-1t-1-5.1V149H333.78v31.76Q333.78,187,336.72,190Z"/><path class="cls-5" d="M415.23,152.81v40.53H433V154.22c0-1.92,0-3.65-.07-5.22H415A25.42,25.42,0,0,1,415.23,152.81Z"/><path class="cls-5" d="M390.51,193.33V157.27a28,28,0,0,1,1.11-8.27H373.1v44.33Z"/><path class="cls-6" d="M53.66,48.42V55.7H39.35V96H30.49V55.7H16.12V48.42Z"/><path class="cls-6" d="M50.11,62.24h6.45a2.7,2.7,0,0,1,1.55.42,1.85,1.85,0,0,1,.79,1.09l4.84,18c.26,1,.48,2,.64,2.9s.33,1.88.48,2.83c.24-.94.49-1.88.77-2.83s.57-1.91.87-2.9l5.59-18.09a2,2,0,0,1,.79-1.09,2.3,2.3,0,0,1,1.38-.42h3.59a2.47,2.47,0,0,1,1.48.42,2,2,0,0,1,.79,1.09l5.53,18.42c.29.94.55,1.86.78,2.75s.46,1.78.67,2.68c.15-.94.32-1.88.51-2.83s.42-1.92.71-2.93l5-18a1.85,1.85,0,0,1,.79-1.09,2.52,2.52,0,0,1,1.45-.42h6.15L91,96H84.45c-.7,0-1.21-.48-1.51-1.45L76.85,75q-.29-1-.54-1.93c-.17-.65-.3-1.29-.41-1.92-.13.66-.28,1.31-.43,2s-.33,1.3-.53,2L68.79,94.55A1.78,1.78,0,0,1,67,96H60.8Z"/><path class="cls-6" d="M116.14,52.41a4.56,4.56,0,0,1-.43,2A5.41,5.41,0,0,1,114.58,56a5.5,5.5,0,0,1-1.66,1.11,5.17,5.17,0,0,1-2,.41,5,5,0,0,1-2-.41A5.35,5.35,0,0,1,107.25,56a5.43,5.43,0,0,1-1.1-1.61,4.74,4.74,0,0,1-.41-2,5,5,0,0,1,.41-2,5.27,5.27,0,0,1,1.1-1.64,5.35,5.35,0,0,1,1.63-1.11,4.85,4.85,0,0,1,2-.41,5.06,5.06,0,0,1,2,.41,5.5,5.5,0,0,1,1.66,1.11,5.25,5.25,0,0,1,1.13,1.64A4.85,4.85,0,0,1,116.14,52.41Zm-1.22,9.84V96h-8.12V62.24Z"/><path class="cls-6" d="M144.13,68.82a2.1,2.1,0,0,1-.69.74,1.78,1.78,0,0,1-.92.21,2.92,2.92,0,0,1-1.27-.33l-1.56-.74a13.86,13.86,0,0,0-2-.74,9.73,9.73,0,0,0-2.68-.33,6.27,6.27,0,0,0-3.78,1,3.16,3.16,0,0,0-1.38,2.67,2.52,2.52,0,0,0,.71,1.82,6.24,6.24,0,0,0,1.88,1.3,18.89,18.89,0,0,0,2.65,1q1.47.44,3,1c1,.35,2,.75,3,1.2a10.53,10.53,0,0,1,2.65,1.72,7.51,7.51,0,0,1,2.58,6,11.21,11.21,0,0,1-.89,4.49,9.83,9.83,0,0,1-2.6,3.55,12.18,12.18,0,0,1-4.23,2.33,19.57,19.57,0,0,1-9.18.53,19.79,19.79,0,0,1-3.19-.87A17.88,17.88,0,0,1,123.42,94a13.83,13.83,0,0,1-2.29-1.64L123,89.29a2.67,2.67,0,0,1,.85-.86,2.44,2.44,0,0,1,1.25-.3,2.64,2.64,0,0,1,1.43.43c.45.28,1,.59,1.56.92a14.75,14.75,0,0,0,2.09.93,9.23,9.23,0,0,0,3,.42,7.9,7.9,0,0,0,2.49-.35,5.18,5.18,0,0,0,1.71-.9,3.44,3.44,0,0,0,1-1.3,3.92,3.92,0,0,0,.31-1.53,2.71,2.71,0,0,0-.71-1.94,6.24,6.24,0,0,0-1.88-1.32,18,18,0,0,0-2.66-1c-1-.3-2-.62-3.07-1a27.16,27.16,0,0,1-3.06-1.23,10.29,10.29,0,0,1-2.66-1.79,8,8,0,0,1-1.88-2.67,9.19,9.19,0,0,1-.71-3.81,9.66,9.66,0,0,1,.82-4,9.21,9.21,0,0,1,2.42-3.27,12,12,0,0,1,4-2.24,16.46,16.46,0,0,1,5.51-.84,16.92,16.92,0,0,1,6.35,1.15,14.47,14.47,0,0,1,4.77,3Z"/><path class="cls-6" d="M163.94,96.53A8.86,8.86,0,0,1,157.2,94a9.51,9.51,0,0,1-2.37-6.86V68.33h-3.42a1.55,1.55,0,0,1-1.61-1.71V63.39l5.42-.89,1.72-9.21a1.6,1.6,0,0,1,.6-1,1.92,1.92,0,0,1,1.2-.37H163V62.54h8.88v5.79H163V86.62a3.58,3.58,0,0,0,.79,2.47,2.67,2.67,0,0,0,2.1.89,3.77,3.77,0,0,0,1.27-.18,8.12,8.12,0,0,0,.89-.38c.25-.13.48-.26.67-.38a1.09,1.09,0,0,1,.59-.18.93.93,0,0,1,.59.18,2.85,2.85,0,0,1,.49.55l2.44,3.95a12.24,12.24,0,0,1-4.08,2.24A15.12,15.12,0,0,1,163.94,96.53Z"/><path class="cls-6" d="M192.27,61.72a16.39,16.39,0,0,1,5.87,1,12.86,12.86,0,0,1,4.62,3,13.63,13.63,0,0,1,3,4.81,18.07,18.07,0,0,1,1.09,6.5,11.24,11.24,0,0,1-.08,1.53,2.41,2.41,0,0,1-.3,1,1.19,1.19,0,0,1-.57.49,2.54,2.54,0,0,1-.93.15H184.14c.24,3.47,1.18,6,2.8,7.63a8.71,8.71,0,0,0,6.45,2.44,11.14,11.14,0,0,0,3.41-.46,15.63,15.63,0,0,0,2.5-1c.71-.37,1.34-.71,1.88-1a3.11,3.11,0,0,1,1.56-.46,1.73,1.73,0,0,1,.85.2,1.78,1.78,0,0,1,.62.56l2.37,3a13.71,13.71,0,0,1-3,2.65,17.13,17.13,0,0,1-3.5,1.71,19.4,19.4,0,0,1-3.72.91,27,27,0,0,1-3.67.26,18.06,18.06,0,0,1-6.55-1.17,14.57,14.57,0,0,1-5.26-3.46,16.17,16.17,0,0,1-3.52-5.65,21.92,21.92,0,0,1-1.28-7.81,18.65,18.65,0,0,1,1.12-6.5,15.6,15.6,0,0,1,3.21-5.3,15.14,15.14,0,0,1,5.1-3.57A16.77,16.77,0,0,1,192.27,61.72Zm.16,5.82a7.5,7.5,0,0,0-5.56,2,9.89,9.89,0,0,0-2.56,5.69h15.26a10.18,10.18,0,0,0-.42-3,7,7,0,0,0-1.32-2.45,6.21,6.21,0,0,0-2.24-1.66A7.64,7.64,0,0,0,192.43,67.54Z"/><path class="cls-6" d="M213.49,96V62.24h4.77a2.57,2.57,0,0,1,1.75.46,2.62,2.62,0,0,1,.66,1.57l.49,4.08a16.06,16.06,0,0,1,4.24-4.93,9,9,0,0,1,5.46-1.81A7,7,0,0,1,235,62.77l-1.05,6.09a1.27,1.27,0,0,1-.42.84,1.47,1.47,0,0,1-.89.24,5.45,5.45,0,0,1-1.35-.23,9,9,0,0,0-2.27-.23,6.88,6.88,0,0,0-4.34,1.4A10.76,10.76,0,0,0,221.61,75V96Z"/></g></g></svg>